<?xml version="1.0" encoding="UTF-8" standalone="no"?>
<!DOCTYPE svg PUBLIC "-//W3C//DTD SVG 1.1//EN" "http://www.w3.org/Graphics/SVG/1.1/DTD/svg11.dtd">
<!-- Created with Vectornator (http://vectornator.io/) -->
<svg height="100%" stroke-miterlimit="10" style="fill-rule:nonzero;clip-rule:evenodd;stroke-linecap:round;stroke-linejoin:round;" version="1.1" viewBox="0 0 1024 1024" width="100%" xml:space="preserve" xmlns="http://www.w3.org/2000/svg" xmlns:vectornator="http://vectornator.io" xmlns:xlink="http://www.w3.org/1999/xlink">
<defs/>
<path d="M0 0L1024 0L1024 1024L0 1024L0 0Z" fill="#ffffff" fill-rule="nonzero" opacity="1" stroke="none"/>
<g id="Background" vectornator:layerName="Background">
<path d="M0 0L1024 0L1024 1024L0 1024L0 0Z" fill="#872f95" fill-rule="nonzero" opacity="1" stroke="none" vectornator:layerName="Rectangle 1"/>
</g>
<g id="Text" vectornator:layerName="Text">
<path d="M487.843 368.632L563.625 368.632L563.625 648.319L843.312 368.632L950.734 368.632L712.062 599.882L957.375 942.46L856.203 942.46L655.422 654.569L563.625 742.46L563.625 942.46L487.843 942.46L487.843 368.632Z" fill="#dddddd" opacity="1" stroke="none" vectornator:layerName="Headline"/>
<g fill="#ffffff" opacity="1" stroke="none" vectornator:layerName="Title">
<path d="M25.6872 54.2714L43.4997 54.2714L69.8747 131.896L96.0622 54.2714L113.687 54.2714L113.687 146.084L101.875 146.084L101.875 91.8964C101.875 90.0214 101.916 86.9172 102 82.5839C102.083 78.2506 102.125 73.6047 102.125 68.6464L75.9372 146.084L63.6247 146.084L37.2497 68.6464L37.2497 71.4589C37.2497 73.7089 37.3017 77.136 37.4059 81.7402C37.5101 86.3443 37.5622 89.7297 37.5622 91.8964L37.5622 146.084L25.6872 146.084L25.6872 54.2714Z"/>
<path d="M131.437 79.1464L142.125 79.1464L142.125 90.7089C143 88.4589 145.145 85.7193 148.562 82.4902C151.979 79.261 155.916 77.6464 160.375 77.6464C160.583 77.6464 160.937 77.6672 161.437 77.7089C161.937 77.7506 162.791 77.8339 164 77.9589L164 89.8339C163.333 89.7089 162.718 89.6256 162.156 89.5839C161.593 89.5422 160.979 89.5214 160.312 89.5214C154.645 89.5214 150.291 91.3443 147.25 94.9902C144.208 98.636 142.687 102.834 142.687 107.584L142.687 146.084L131.437 146.084L131.437 79.1464Z"/>
<path d="M174.937 54.2714L192.75 54.2714L219.125 131.896L245.312 54.2714L262.937 54.2714L262.937 146.084L251.125 146.084L251.125 91.8964C251.125 90.0214 251.166 86.9172 251.25 82.5839C251.333 78.2506 251.375 73.6047 251.375 68.6464L225.187 146.084L212.875 146.084L186.5 68.6464L186.5 71.4589C186.5 73.7089 186.552 77.136 186.656 81.7402C186.76 86.3443 186.812 89.7297 186.812 91.8964L186.812 146.084L174.937 146.084L174.937 54.2714Z"/>
<path d="M289 128.271C289 131.521 290.187 134.084 292.562 135.959C294.937 137.834 297.75 138.771 301 138.771C304.958 138.771 308.791 137.855 312.5 136.021C318.75 132.98 321.875 128.001 321.875 121.084L321.875 112.021C320.5 112.896 318.729 113.626 316.562 114.209C314.395 114.792 312.27 115.209 310.187 115.459L303.375 116.334C299.291 116.876 296.229 117.73 294.187 118.896C290.729 120.855 289 123.98 289 128.271ZM316.25 105.521C318.833 105.188 320.562 104.105 321.437 102.271C321.937 101.271 322.187 99.8339 322.187 97.9589C322.187 94.1256 320.823 91.3443 318.093 89.6152C315.364 87.886 311.458 87.0214 306.375 87.0214C300.5 87.0214 296.333 88.6047 293.875 91.7714C292.5 93.5214 291.604 96.1256 291.187 99.5839L280.687 99.5839C280.895 91.3339 283.573 85.5943 288.718 82.3652C293.864 79.136 299.833 77.5214 306.625 77.5214C314.5 77.5214 320.895 79.0214 325.812 82.0214C330.687 85.0214 333.125 89.6881 333.125 96.0214L333.125 134.584C333.125 135.751 333.364 136.688 333.843 137.396C334.323 138.105 335.333 138.459 336.875 138.459C337.375 138.459 337.937 138.428 338.562 138.365C339.187 138.303 339.854 138.209 340.562 138.084L340.562 146.396C338.812 146.896 337.479 147.209 336.562 147.334C335.645 147.459 334.395 147.521 332.812 147.521C328.937 147.521 326.125 146.146 324.375 143.396C323.458 141.938 322.812 139.876 322.437 137.209C320.145 140.209 316.854 142.813 312.562 145.021C308.27 147.23 303.541 148.334 298.375 148.334C292.166 148.334 287.093 146.448 283.156 142.678C279.218 138.907 277.25 134.188 277.25 128.521C277.25 122.313 279.187 117.501 283.062 114.084C286.937 110.667 292.02 108.563 298.312 107.771L316.25 105.521Z"/>
<path d="M353.812 60.4589L365.187 60.4589L365.187 79.1464L375.875 79.1464L375.875 88.3339L365.187 88.3339L365.187 132.021C365.187 134.355 365.979 135.917 367.562 136.709C368.437 137.167 369.895 137.396 371.937 137.396C372.479 137.396 373.062 137.386 373.687 137.365C374.312 137.344 375.041 137.292 375.875 137.209L375.875 146.084C374.583 146.459 373.239 146.73 371.843 146.896C370.448 147.063 368.937 147.146 367.312 147.146C362.062 147.146 358.5 145.803 356.625 143.115C354.75 140.428 353.812 136.938 353.812 132.646L353.812 88.3339L344.75 88.3339L344.75 79.1464L353.812 79.1464L353.812 60.4589Z"/>
<path d="M26.3122 208.271L38.8747 208.271L38.8747 246.209L86.6247 246.209L86.6247 208.271L99.1872 208.271L99.1872 300.084L86.6247 300.084L86.6247 257.146L38.8747 257.146L38.8747 300.084L26.3122 300.084L26.3122 208.271Z"/>
<path d="M144.812 231.646C149.562 231.646 154.166 232.761 158.625 234.99C163.083 237.219 166.479 240.105 168.812 243.646C171.062 247.021 172.562 250.959 173.312 255.459C173.979 258.542 174.312 263.459 174.312 270.209L125.25 270.209C125.458 277.001 127.062 282.448 130.062 286.553C133.062 290.657 137.708 292.709 144 292.709C149.875 292.709 154.562 290.771 158.062 286.896C160.062 284.646 161.479 282.042 162.312 279.084L173.375 279.084C173.083 281.542 172.114 284.282 170.468 287.303C168.823 290.323 166.979 292.792 164.937 294.709C161.52 298.042 157.291 300.292 152.25 301.459C149.541 302.126 146.479 302.459 143.062 302.459C134.729 302.459 127.666 299.428 121.875 293.365C116.083 287.303 113.187 278.813 113.187 267.896C113.187 257.146 116.104 248.417 121.937 241.709C127.77 235.001 135.395 231.646 144.812 231.646ZM162.75 261.271C162.291 256.396 161.229 252.501 159.562 249.584C156.479 244.167 151.333 241.459 144.125 241.459C138.958 241.459 134.625 243.323 131.125 247.053C127.625 250.782 125.77 255.521 125.562 261.271L162.75 261.271Z"/>
<path d="M188.437 208.271L199.687 208.271L199.687 300.084L188.437 300.084L188.437 208.271Z"/>
<path d="M216.875 208.271L228.125 208.271L228.125 300.084L216.875 300.084L216.875 208.271Z"/>
<path d="M271.562 292.834C279.02 292.834 284.135 290.011 286.906 284.365C289.677 278.719 291.062 272.438 291.062 265.521C291.062 259.271 290.062 254.188 288.062 250.271C284.895 244.105 279.437 241.021 271.687 241.021C264.812 241.021 259.812 243.646 256.687 248.896C253.562 254.146 252 260.48 252 267.896C252 275.021 253.562 280.959 256.687 285.709C259.812 290.459 264.77 292.834 271.562 292.834ZM272 231.209C280.625 231.209 287.916 234.084 293.875 239.834C299.833 245.584 302.812 254.042 302.812 265.209C302.812 276.001 300.187 284.917 294.937 291.959C289.687 299.001 281.541 302.521 270.5 302.521C261.291 302.521 253.979 299.407 248.562 293.178C243.145 286.948 240.437 278.584 240.437 268.084C240.437 256.834 243.291 247.876 249 241.209C254.708 234.542 262.375 231.209 272 231.209Z"/>
<path d="M357.687 234.021L370.75 234.021L370.75 247.646L357.687 247.646L357.687 234.021ZM357.687 286.459L370.75 286.459L370.75 300.084L357.687 300.084L357.687 286.459Z"/>
<path d="M393.25 234.021L406.312 234.021L406.312 247.646L393.25 247.646L393.25 234.021ZM393.25 286.459L406.312 286.459L406.312 300.084L393.25 300.084L393.25 286.459Z"/>
<path d="M459.937 208.271L472.062 208.271L472.062 253.021L516.812 208.271L534 208.271L495.812 245.271L535.062 300.084L518.875 300.084L486.75 254.021L472.062 268.084L472.062 300.084L459.937 300.084L459.937 208.271Z"/>
<path d="M570.375 292.834C577.833 292.834 582.948 290.011 585.718 284.365C588.489 278.719 589.875 272.438 589.875 265.521C589.875 259.271 588.875 254.188 586.875 250.271C583.708 244.105 578.25 241.021 570.5 241.021C563.625 241.021 558.625 243.646 555.5 248.896C552.375 254.146 550.812 260.48 550.812 267.896C550.812 275.021 552.375 280.959 555.5 285.709C558.625 290.459 563.583 292.834 570.375 292.834ZM570.812 231.209C579.437 231.209 586.729 234.084 592.687 239.834C598.645 245.584 601.625 254.042 601.625 265.209C601.625 276.001 599 284.917 593.75 291.959C588.5 299.001 580.354 302.521 569.312 302.521C560.104 302.521 552.791 299.407 547.375 293.178C541.958 286.948 539.25 278.584 539.25 268.084C539.25 256.834 542.104 247.876 547.812 241.209C553.52 234.542 561.187 231.209 570.812 231.209Z"/>
<path d="M617.25 214.459L628.625 214.459L628.625 233.146L639.312 233.146L639.312 242.334L628.625 242.334L628.625 286.021C628.625 288.355 629.416 289.917 631 290.709C631.875 291.167 633.333 291.396 635.375 291.396C635.916 291.396 636.5 291.386 637.125 291.365C637.75 291.344 638.479 291.292 639.312 291.209L639.312 300.084C638.02 300.459 636.677 300.73 635.281 300.896C633.885 301.063 632.375 301.146 630.75 301.146C625.5 301.146 621.937 299.803 620.062 297.115C618.187 294.428 617.25 290.938 617.25 286.646L617.25 242.334L608.187 242.334L608.187 233.146L617.25 233.146L617.25 214.459Z"/>
<path d="M650.875 208.271L662.125 208.271L662.125 300.084L650.875 300.084L650.875 208.271Z"/>
<path d="M679 233.459L690.437 233.459L690.437 300.084L679 300.084L679 233.459ZM679 208.271L690.437 208.271L690.437 221.021L679 221.021L679 208.271Z"/>
<path d="M707.437 233.146L718.125 233.146L718.125 242.646C721.291 238.73 724.645 235.917 728.187 234.209C731.729 232.501 735.666 231.646 740 231.646C749.5 231.646 755.916 234.959 759.25 241.584C761.083 245.209 762 250.396 762 257.146L762 300.084L750.562 300.084L750.562 257.896C750.562 253.813 749.958 250.521 748.75 248.021C746.75 243.855 743.125 241.771 737.875 241.771C735.208 241.771 733.02 242.042 731.312 242.584C728.229 243.501 725.52 245.334 723.187 248.084C721.312 250.292 720.093 252.573 719.531 254.928C718.968 257.282 718.687 260.646 718.687 265.021L718.687 300.084L707.437 300.084L707.437 233.146Z"/>
</g>
</g>
</svg>
